#!OML:ASF F:\VICON\USERDATA\INSTALL\rory3\rory3.ASF
:FULLY-SPECIFIED
:DEGREES
41
root -0.1391308403697442 17.83590550390971 19.898607068370545 0.7167544513784327 -4.643400855995234 -1.5838883831232624
lfemur 2.227785437242856 0.46424214716315665 -20.469866026841434
ltibia 72.17832250304076
lfoot 14.627541080540503 -8.7893182735845
ltoes -4.4043255910733174
rfemur -28.159437203076678 2.0436833892247517 30.298624502157505
rtibia 48.70687178653823
rfoot -11.7441897080405 -6.512621797272683
rtoes -3.8899150682858985
lowerback nan 0.05164969678393738 0.3818118678492164
upperback -0.03191225860720537 0.25978776974781037 2.6544703369988687
thorax -9.52301218271177 0.19884792702407028 2.963987735604041
lowerneck -20.708791674821672 -2.389658730968537 -2.1153711003563025
upperneck 14.588232944300158 -2.760343982587116 1.5924306498576715
head 7.906717903326477 -1.2933529432666182 0.32893477214650296
lclavicle -4.550697172706471e-15 -2.3799861815159175e-15
lhumerus -43.21525889330215 -17.75866514268216 98.39127908413259
lradius 100.33511402566701
lwrist 33.78637229160296
lhand -25.529594401705772 2.14637432375069
lfingers nan
lthumb 1.2711585343458809 31.907856060861885
rclavicle -4.217264152996383e-15 -2.1202053890446802e-15
rhumerus -54.909697281363066 1.35277457077256 -93.147204125763
rradius 103.13367336780722
rwrist -6.396750824478428
rhand -16.669828899686795 nan
rfingers nan
rthumb 9.494364686735903 8.73682581600235
42
root -0.2517593545807798 17.51229780486996 19.921415751194754 0.8478998154572803 -5.8488500934413645 -3.1535438357936694
lfemur -2.146760907944559 3.137369961784441 -16.15157606187321
ltibia 80.2302897888591
lfoot 11.800481498961773 -7.392094690693368
ltoes -3.9212598781423083
rfemur -27.193569517841432 4.187921529857022 32.11705436285162
rtibia 52.40088680673053
rfoot -13.752290776099157 -10.086642022481595
rtoes -3.76693029221865
lowerback nan 0.5246427730117849 1.5045686752491187
upperback 0.09350847006803975 1.1378701803841877 3.205236354242794
thorax -9.67537273160435 0.5527564596659172 2.223086512063444
lowerneck -21.080790063471238 -2.4052979605530442 -1.872020727312619
upperneck 14.324592269328138 -2.7933674218990663 1.5325354007216352
head 7.882105435432542 -1.3049035131521152 0.26907528256032015
lclavicle 4.106820602164392e-17 6.109344486926016e-15
lhumerus -45.894823262415606 -16.65504767903367 98.89308375285823
lradius 99.028788630974
lwrist 34.67494703711056
lhand -25.34612015656116 2.6189021733559716
lfingers nan
lthumb 1.433599093147453 32.34995252185307
rclavicle -1.0132674017318081e-17 5.011381119034476e-15
rhumerus -53.14027633539465 2.209509321799743 -93.58853382908192
rradius 103.28785777731858
rwrist -7.748048186964331
rhand -16.784772415222097 nan
rfingers nan
rthumb 9.446141301374581 8.573121277395309
43
root -0.30449526867037613 17.26757389329818 19.925452906372684 1.3471892839770399 -5.485509180731673 -4.870751678970704
lfemur -7.132006609093035 4.747262012613525 -12.440168898440081
ltibia 87.63274771281547
lfoot 9.440330795172105 -7.554958811577499
ltoes -2.2690821024259744
rfemur -25.283310311691068 5.424251280701457 34.07996140043297
rtibia 54.74002372734695
rfoot -14.989757847259506 -12.560299437411071
rtoes -5.656521749138411
lowerback nan 0.639481114992787 3.052798403677626
upperback 0.06486941520566925 1.7202448780055672 3.7792739975142897
thorax -9.909144482503073 0.7463436162194153 1.5450019643602522
lowerneck -21.566986014933647 -2.4556976736091536 -1.5583195688082276
upperneck 14.002700736072867 -2.9111000428001277 1.4583439896947068
head 7.836372327859747 -1.3618628877722267 0.19929537263540942
lclavicle -1.7214676979424774e-15 4.686967418610267e-15
lhumerus -48.54653760962177 -15.936385302876918 99.45586287064711
lradius 98.50586529369632
lwrist 35.19978438304563
lhand -25.262816339523976 2.671028627623401
lfingers nan
lthumb 1.551330088896255 32.43986769700191
rclavicle -1.362916594282835e-15 4.2124480092037416e-15
rhumerus -51.34910876126585 3.2624337291648438 -93.98911341870365
rradius 103.63779625968391
rwrist -9.144230512754186
rhand -16.7869338767905 nan
rfingers nan
rthumb 9.493189147493059 8.52659378187731
44
root -0.4021380207358628 17.0420550431884 20.51941155348655 1.995493140443065 -5.5440197364199815 -6.050405484071678
lfemur -12.916507071884899 6.770964918615527 -9.431404363873122
ltibia 93.79309073298677
lfoot 6.889119778728035 -8.670397741204425
ltoes -0.5428620126013293
rfemur -23.34330537402406 6.377178990626987 35.50762506507111
rtibia 56.11871118940554
rfoot -16.244487573679997 -13.963912976193782
rtoes -8.225257777244593
lowerback nan 0.8813575733869609 3.9301021720997973
upperback -0.010866754638707565 2.2634450921320237 4.076295607271623
thorax -10.114384939006507 0.9609234824844731 1.0424070000125207
lowerneck -21.99068818899208 -2.5877894627656115 -1.342071878905067
upperneck 13.6925002603106 -3.1250581587698445 1.4566426378445394
head 7.789542578741323 -1.4600090032066295 0.15752848230740818
lclavicle -1.2708889564659807e-15 4.450355092945779e-15
lhumerus -51.026783570704644 -15.569175646710677 100.02122956278936
lradius 98.78612365678573
lwrist 35.31207431687453
lhand -24.870408832813517 2.900096114353029
lfingers nan
lthumb 1.835284291800304 32.6299218100246
rclavicle -1.3355869238225674e-15 4.285375226669216e-15
rhumerus -49.57857796733684 4.421169417480728 -94.25212778350318
rradius 104.20004104459987
rwrist -9.616808545448025
rhand -16.81835536286213 nan
rfingers nan
rthumb 9.207096362437824 8.32247019118095
45
root -0.4512493793974812 16.870048613984498 19.86324934472372 2.6811970585848997 -5.69785563078871 -6.605107327994686
lfemur -18.71950511150348 8.6669538531122 -7.694458802023364
ltibia 98.13601290715603
lfoot 4.968519235223433 -9.211755707996641
ltoes -0.09243931498181546
rfemur -21.88028647607589 6.9336476452193505 36.260114625562736
rtibia 56.62658006216912
rfoot -17.458315747002757 -14.640536827827148
rtoes -11.53346457127448
lowerback nan 1.2610750254966854 4.283153940915859
upperback 0.013812516563919575 2.823587197390469 4.111015843319489
thorax -10.223228763830118 1.188592815085431 0.5938366288469704
lowerneck -22.287172209576813 -2.8142883794369573 -1.2187544979940719
upperneck 13.355905074735274 -3.465968881208184 1.4998320170624686
head 7.723945002101494 -1.62309884301053 0.12720980583482677
lclavicle 2.257419225288493e-16 5.156963104081225e-15
lhumerus -53.17207945507506 -15.34474756490743 100.52183030000278
lradius 99.62886336182375
lwrist 35.196882499878264
lhand -24.73878253887647 2.3640634128569578
lfingers nan
lthumb 1.9931536228587903 32.2572065935673
rclavicle -2.6713236988797034e-16 4.987733552639294e-15
rhumerus -47.81388580677165 5.6409237624114 -94.34540482795859
rradius 104.97740448578519
rwrist -9.100857813379033
rhand -16.800888258587555 nan
rfingers nan
rthumb 9.195303757714028 8.472560206979608
